# xmcd
#
# Track frame offsets:
#	150
#	13625
#	25655
#	38725
#	50350
#	63400
#	73420
#	86925
#	100500
#	113570
#	126145
#	138050
#	150840
#	163435
#	177485
#	190225
#	202770
#	215510
#	229150
#	242840
#	256005
#	268885
#	281575
#	294865
#	309195
#
# Disc length: 4285 seconds
#
# Revision: 1
# Processed by: cddbd v1.5.1PL2 Copyright (c) Steve Scherf et al.
# Submitted via: audiograbber 1.83.01
#
DISCID=5910bb19
DTITLE=Various Artist - 100 No. 1 Country Hits
DYEAR=1900
DGENRE=Country
TTITLE0=Hank Williams - Jambalaya (On The Bayou)
TTITLE1=Jim Reeves - Mexican Joe
TTITLE2=Hank Snow - I´M Movin` On
TTITLE3=Ferlin Husky and Jean Shepard - A Dear John Letter
TTITLE4=Eddy Arnold - Anytime
TTITLE5=Webb Pierce - There Stands The Glass
TTITLE6=Lefty Frizzell - If You`ve Got The Money, I`ve Got The Time
TTITLE7=Merle Travis - So Round, So Firm, So Fully Packed
TTITLE8=Ernest Tubb - Slippin` Around
TTITLE9=Hank Williams - Your Cheatin` Heart
TTITLE10=Tennessee Ernie Ford - Shotgun Boogie
TTITLE11=Jim Reeves - Bimbo
TTITLE12=Skeets McDonald - Don`t Let The Stars Get In Your Eyes
TTITLE13=Lefty Frizzell - Always Late (With Your Kisses)
TTITLE14=Red Foley - Chattanoogie Shoe Shine Boy
TTITLE15=Gene Autry - At Mail Call Today
TTITLE16=Jack Guthrie - Oklahoma Hills
TTITLE17=Merle Travis - Divorce Me Cod
TTITLE18=Webb Pierce - Back Street Affair
TTITLE19=Eddy Arnold - Take Me In Your Arms and Hold Me
TTITLE20=The Delmore Brothers - Blues Stay Away From Me
TTITLE21=Al Dexter - Pistol Packin` Mama
TTITLE22=Hank Snow - The Golden Rocket
TTITLE23=Ernest Tubb - Soldiers` Last Letter
TTITLE24=Red Foley - Tennessee Saturday Night
EXTD=
EXTT0=
EXTT1=
EXTT2=
EXTT3=
EXTT4=
EXTT5=
EXTT6=
EXTT7=
EXTT8=
EXTT9=
EXTT10=
EXTT11=
EXTT12=
EXTT13=
EXTT14=
EXTT15=
EXTT16=
EXTT17=
EXTT18=
EXTT19=
EXTT20=
EXTT21=
EXTT22=
EXTT23=
EXTT24=
PLAYORDER=
